# xmcd
#
# Track frame offsets:
#  151
#  22527
#  44608
#  65547
#  87900
#  108697
#  129647
#  135178
#
# Disc length: 1885 seconds
#
# Revision: 0
# Processed by: cddbd v1.4PL0 Copyright (c) Steve Scherf et al.
# Submitted via: AltoMP3_Maker 3.0
#
DISCID=63075b08
DTITLE=Vidya Sagar - Run
DYEAR=1900
DGENRE=
TTITLE0=Toorupu Veedhilo
TTITLE1=Mounalu Elane
TTITLE2=Prema Pisachi
TTITLE3=Merupedo
TTITLE4=Ichuko .. Ichuko
TTITLE5=Chali gali
TTITLE6=Sogasari
TTITLE7=Paruvapu
EXTD=
EXTT0=
EXTT1=
EXTT2=
EXTT3=
EXTT4=
EXTT5=
EXTT6=
EXTT7=
PLAYORDER=
